<?xml version="1.0" encoding="UTF-8"?><svg id="Layer_1" xmlns="http://www.w3.org/2000/svg" viewBox="0 0 45 35"><defs><style>.cls-1{fill:#4a484a;}</style></defs><rect class="cls-1" x="3.36" y="3.43" width="7.99" height="7.99" rx=".99" ry=".99"/><rect class="cls-1" x="13.46" y="3.43" width="7.99" height="7.99" rx=".99" ry=".99"/><rect class="cls-1" x="23.55" y="3.43" width="7.99" height="7.99" rx=".99" ry=".99"/><rect class="cls-1" x="33.65" y="3.43" width="7.99" height="7.99" rx=".99" ry=".99"/><rect class="cls-1" x="3.36" y="13.5" width="7.99" height="7.99" rx=".99" ry=".99"/><rect class="cls-1" x="13.46" y="13.5" width="7.99" height="7.99" rx=".99" ry=".99"/><rect class="cls-1" x="23.55" y="13.5" width="7.99" height="7.99" rx=".99" ry=".99"/><rect class="cls-1" x="33.65" y="13.5" width="7.99" height="7.99" rx=".99" ry=".99"/><rect class="cls-1" x="3.36" y="23.58" width="7.99" height="7.99" rx=".99" ry=".99"/><rect class="cls-1" x="13.46" y="23.58" width="7.99" height="7.99" rx=".99" ry=".99"/><rect class="cls-1" x="23.55" y="23.58" width="7.99" height="7.99" rx=".99" ry=".99"/><rect class="cls-1" x="33.65" y="23.58" width="7.99" height="7.99" rx=".99" ry=".99"/></svg>