<svg xmlns="http://www.w3.org/2000/svg" width="128" height="45" viewBox="0 0 126 45"><path style="stroke:none;fill-rule:evenodd;fill:#903233;fill-opacity:1" d="M96.574 5.781c.063-.593.438-2.32 2.434-1.097 1.992 1.226 1.91.933 2.73 1.32.82.387.024 2.25-.101 2.531-.125.29-.18.668-.426 2.031-.238 1.36-1.215.91-1.656.793-.446-.129-1.875-1.07-2.957-1.363-1.082-.285-.563-1.3-.364-2.148.325-1.344.29-1.48.34-2.067Zm-48.87-.261c.245-1.247.491-1.25 1.858-.766.336.121.868.262 1.598.336.727.082 2.082.5 1.926 1.613-.168 1.234-.262 2.371-1.047 3.215-.437.469-1.102.465-1.668.48-.465.012-1.281.172-1.723-.378-.296-.364-.855-.672-1.265-1.012-.41-.344-.543-1.793-.262-2.227.223-.351.48-.66.582-1.261ZM1.523 17.77c1.269.085 2.804-1.25 3.374-2.137C5.938 14 2.16 5.843 10.066.465c.489-.328.801-.516 1.774.238 1.207.938 3.383 2.055 4.484 2.922.91.71.613 1.047-.047 1.305-.304.113-6.336 3.312-4.847 8.465.191.664.957 1.066 1.39.933.43-.121 2.317-.414 2.664-.152.598.492 1.07 1.222 1.762 1.449 0 0 .469-.012.746-.313.89-.976 3.653-2.773 5.094-2.601.953.11 1.758 1.66 2.094 1.73.332.067 1.03-.39 1.57-.472.773-.114 2.121 2.027 2.855 2.808.336.364.094 1.094-.109 1.407-.2.324-1.95 3.285-2 5.086-.055 1.808 2.762 4.035 3.817 1.027.917-3.29 1.539-23.262 1.695-23.727.183-.523.5-.554 1-.57.676-.02 4.16 1.945 4.57 2.39.438.47.621 1.079.512 1.57-.211 1.028-1.39 5.626-1.352 7.517.028 1.46.356 2.234 1.051 1.843 0 0 1.957-1.41 3.652-.047.418.258.7 1.051 1.52 1.711.812.66 2.184-.476 2.312-.476.13 0-.199-2.235.5-2.625.696-.383 5.235 1.883 5.551 2.422.63 1.078-.027 1.445.434 2.457.46.996 4.14-.817 4.527-1.711.88-2.09.465-3.207 1.586-3.192.649.004 3.465 1.079 4.07 1.625.743.668.153 3.985.504 4.606.512.91 4.168-1.75 4.95-4.027.593-1.711 1.668-2.32 2.18-2.333.51-.007.652.239 1.378.43.738.192 2.984 1.05 3.203 2.031.29 1.329-.058 1.657-.355 3.371-.301 1.715-.418 5.735-.406 7.446.007.719.347 1.215 1.07 1.226 1.023.008 1.113-1.289 1.082-1.964-.086-1.895 1.172-11.082 7.09-11.856 1.101-.14 1.715 1.086 2.675.613.786-.386.774-9.464.75-11.48-.003-.399.282-.957.883-.793.567.16.309-.02 1.125.562.82.575 1.934.723 3.14 1.254.513.125.603.848.524 1.246-.867 3.973-.921 15.395-1.086 22.168.23.52.68.77.97.688 1.792-.5 1.644-1.262 1.804-2.828.094-.922.7-9 .723-9.485.023-.472.5-1.789 1.511-1.59 1.41.274 4.145 1.508 4.215 1.618.074.11.461.449.219 1.523-.238 1.082-1.028 8.7-.004 9.985.691.863.973 1.18 1.45 1.148.546-.04 2.237-1.012 2.206-1.8-.023-.63-1.027-2.376-1.164-2.579-.289-.441-.437-1.441.66-2.215.922-1.14 5.344-4.922 6.309-6.047.305-.32 1.027-1.32 2.113-.464 1.09.867 6.797 4.695 6.656 4.789-.14.082 1.032.433.153 1.644-.84 1.16-1.496 3.629-1.035 4.45.46.82 3.28.12 4.199-.438.562-.352 3.008-2.559 3.086-2.59.238-.094.101.172.332.434-.418.867-.914 2.707-2.082 4.187-.551 1.285.75.527.523 1.152-.226.633-3.144 3.696-5.687 3.48-1.375-.116-1.711-1.523-2.496-2.605-.414-.57-.489-.562-1.102-.265-.613.297-2.914 2.12-3.523 2.37-.614.25-.961.579-1.891.145-.926-.433-2.352-2.238-2.77-1.808-.507.52-2.652 1.781-3.492 2.195-.844.41-1.605.637-2.328.02-.812-.696-2.465-2.149-4.281-1.282-1.781.957-3.309 1.856-4.406 2.07-.864.165-1.446-.288-1.563-.34l-2.558-1.21c-.133-.066-1.012-.34-1.633-.215-1.328.29-3.559 2.024-5.387 1.938-.95-.051-3.922-1.762-4.273-2.22-.348-.452-1.16-.566-1.512-.3-.797.606-2.34 1.438-2.613 1.54-.274.112-.973.655-2.149-.145-1.168-.797-2.066-1.09-2.094-1.157-.027-.07-.82-.21-.789-1.707.032-1.496-.257-3.09-.28-3.402-.02-.309-.321-1.172-1.11-.785-.946.46-3.172 1.922-3.746 2.992-.575 1.066-.461.844-.848 1.848-.379 1.007-.414 1.218-.531 1.554-.196.563-1.14.871-1.61.614-1.39-.754-2.43-1.598-3.441-2.38-.899-.695-.871-1.355-.715-2.343.234-1.457.54-4.293.582-4.797.05-.504.383-1.445-.832-.957-1.207.48-1.59.754-2.328 1.254-.547.371-.93.46-1.023 1.867-.098 1.402-.438 4.723-.598 5.8-.074.524-.778 1.665-1.84 1.356a10.558 10.558 0 0 1-2.781-1.23c-.844-.527-1.207-.629-1.02-2.04.184-1.41.63-5.866.66-6.597.032-.73.157-2.101-.523-1.937-.559.136-.645.18-1.184.703-.261.25-.609 8.945-7.132 11.406-1.82.688-4.208-2.14-5.31-1.879-.796.192-1.573.824-2.66 1.551-1.503 1.008-2.827-.508-3.64-1.078-.8-.567-1.344-.633-2.082-.156-1.328.847-1.777 1.464-2.332 1.777-.574.32-2.281.293-2.863-.07-1.996-1.16-4.797-3.801-5.051-3.996-.254-.2-.703-.95-.496-1.852.285-1.254.707-2.73.738-3.207.043-.531-.015-.918-.265-1-2.028-.645-2.313.488-2.336 1.402-.04 1.664-.02 11.14-.243 12.785-.195 1.434-.57 3.305-1.64 4.75-1.07 1.45-2.297 2.176-3.277 2.637-.774.367-1.102.133-1.5-.129-1.043-.672-2.657-2.195-3.434-2.886-.356-.32-.477-.672.066-1.11 3.563-2.828 4.461-3.676 4.371-8.465-.086-4.5-.015-5.261-.093-6.187-.086-.926-1.875-.496-2.422-.723-.528-.21-.578-.344-1.145-1.527-.847-.738-1.39-1.328-1.875-2.403-.605-1.351.723-1.507 1.367-1.46Zm0 0"/><path style="stroke:none;fill-rule:nonzero;fill:#2b2a29;fill-opacity:1" d="M23.723 41.063a2.115 2.115 0 0 0-.668-.43 1.899 1.899 0 0 0-.739-.145c-.5 0-.906.168-1.222.512-.313.344-.469.79-.469 1.336 0 .523.148.957.457 1.3.305.344.691.512 1.156.512a2.1 2.1 0 0 0 .778-.148c.242-.105.476-.262.703-.469v.903a2.375 2.375 0 0 1-.653.343 2.562 2.562 0 0 1-.77.114 2.58 2.58 0 0 1-.972-.184 2.306 2.306 0 0 1-.785-.543 2.525 2.525 0 0 1-.512-.824 2.821 2.821 0 0 1-.18-1.016c0-.36.06-.691.18-1.008.118-.316.293-.59.524-.828a2.22 2.22 0 0 1 .777-.547c.297-.125.617-.183.957-.183.27 0 .527.039.77.125.246.082.48.207.71.379Zm4.12 3.695v-4.883h2.56v.672h-1.817v1.226h1.816v.7h-1.816v1.574h1.816v.71Zm6.606 0v-4.883h.746v4.172h1.664v.71Zm6.207 0v-4.883h2.563v.672h-1.817v1.226h1.817v.7h-1.817v1.574h1.817v.71Zm7.34-2.824h.281c.36 0 .606-.047.758-.153.145-.101.215-.277.215-.523 0-.266-.066-.45-.2-.559-.136-.11-.39-.164-.773-.164h-.28Zm0 2.164h.254c.266 0 .46-.016.586-.035a.792.792 0 0 0 .312-.118.714.714 0 0 0 .211-.258.864.864 0 0 0 .075-.363.832.832 0 0 0-.094-.406.67.67 0 0 0-.258-.273.73.73 0 0 0-.246-.079 1.721 1.721 0 0 0-.36-.03h-.48Zm-.73.66v-4.883h1.156c.332 0 .574.02.73.055.16.039.29.101.403.183.14.114.254.262.328.438.082.187.117.383.117.601 0 .258-.055.477-.168.649a.879.879 0 0 1-.488.367.91.91 0 0 1 .629.395c.152.21.23.484.23.808 0 .2-.031.387-.098.563a1.353 1.353 0 0 1-.277.457 1.03 1.03 0 0 1-.465.285c-.187.054-.496.082-.933.082Zm7.632-2.801h.137c.39 0 .656-.05.781-.145.133-.101.2-.273.2-.523 0-.27-.07-.457-.211-.566-.137-.114-.395-.164-.77-.164h-.137Zm-.043.613v2.188h-.699v-4.883h1.035c.305 0 .543.02.711.059.168.043.309.113.43.214.14.118.25.27.328.457.078.184.113.391.113.614 0 .39-.082.695-.261.918-.18.222-.442.351-.79.398l1.583 2.223h-.84l-1.531-2.188Zm7.055.27h1.278l-.473-1.117a3.47 3.47 0 0 1-.082-.243c-.028-.093-.063-.195-.09-.308a4.048 4.048 0 0 1-.164.55Zm2.059 1.918-.52-1.258h-1.816l-.535 1.258h-.782l2.223-5.078 2.215 5.078Zm5.539-4.211v4.21h-.742v-4.21h-1.22v-.672h3.177v.672Zm4.98 4.21v-4.882h2.559v.672H75.23v1.226h1.817v.7H75.23v1.574h1.817v.71Zm11.164 0v-4.882h.743v4.883Zm5.008 0V39.68l2.918 2.984c.078.086.156.176.242.273.078.094.164.204.254.32v-3.382h.684v5.074l-2.965-3.039c-.078-.086-.16-.168-.23-.265a3.167 3.167 0 0 1-.211-.286v3.399Zm9.094-.718h.625c.348 0 .605-.023.773-.074.172-.047.325-.133.45-.246.175-.16.304-.352.39-.59a2.28 2.28 0 0 0 .133-.816c0-.313-.043-.586-.133-.82a1.435 1.435 0 0 0-.39-.59 1.086 1.086 0 0 0-.465-.247c-.176-.05-.465-.074-.848-.074h-.535Zm-.746.719v-4.883h1.004c.652 0 1.113.031 1.379.102.27.07.504.191.699.351.27.215.469.492.605.832.137.34.207.727.207 1.16 0 .434-.07.817-.207 1.149a2.034 2.034 0 0 1-.605.832 1.78 1.78 0 0 1-.684.351c-.254.07-.652.106-1.191.106Zm7.953 0v-4.883h.742v4.883Zm5.977-1.918h1.28l-.468-1.117a3.362 3.362 0 0 1-.086-.243c-.031-.093-.059-.195-.09-.308-.023.105-.05.207-.078.297-.027.093-.058.176-.086.254Zm2.058 1.918-.516-1.258h-1.816l-.535 1.258h-.777l2.218-5.078 2.215 5.078Zm0 0"/></svg>