<?xml version="1.0" encoding="UTF-8"?>
<svg id="Layer_1" data-name="Layer 1" xmlns="http://www.w3.org/2000/svg" viewBox="0 0 400 120">
  <defs>
    <style>
      .cls-1 {
        fill: #f3ece7;
      }

      .cls-2 {
        fill: #fff;
      }
    </style>
  </defs>
  <rect class="cls-1" width="400" height="120"/>
  <rect y="0" width="400" height="120" rx="17.16" ry="17.16"/>
  <path class="cls-2" d="m42.12,48.88c-6.49,11.26-2.36,28.35,4.81,38.71,3.58,5.18,7.21,9.83,12.17,9.83.09,0,.19,0,.28,0,2.33-.09,4.02-.81,5.65-1.51,1.83-.78,3.72-1.59,6.69-1.59s4.63.78,6.37,1.53c1.72.74,3.49,1.51,6.1,1.46,5.59-.1,9.03-5.12,12.06-9.55,3.16-4.62,4.75-9.11,5.28-10.82l.02-.07c.1-.3-.04-.64-.33-.77,0,0-.04-.02-.05-.02-.99-.4-9.63-4.24-9.72-14.69-.08-8.49,6.48-12.99,7.8-13.8l.06-.04c.14-.09.24-.24.28-.4.03-.17,0-.34-.1-.48-4.53-6.63-11.48-7.63-14.28-7.75-.4-.04-.82-.06-1.24-.06-3.29,0-6.43,1.24-8.96,2.24-1.75.69-3.25,1.28-4.29,1.28-1.17,0-2.69-.6-4.44-1.3-2.35-.93-5.01-1.99-7.83-1.99-.07,0-.13,0-.2,0-6.55.1-12.74,3.84-16.15,9.78Z"/>
  <path class="cls-2" d="m85.24,20.67c-3.97.16-8.73,2.6-11.57,5.94-2.42,2.8-4.78,7.47-4.16,12.17.04.29.28.52.58.55.27.02.54.03.81.03,3.88,0,8.06-2.15,10.92-5.6,3.01-3.65,4.53-8.33,4.07-12.52-.04-.33-.33-.57-.65-.56Z"/>
  <g>
    <path class="cls-2" d="m130.88,23.09h7.52c1.97,0,3.72.41,5.25,1.22,1.53.81,2.72,1.94,3.57,3.38.85,1.44,1.28,3.07,1.28,4.9s-.43,3.46-1.28,4.9c-.85,1.44-2.04,2.57-3.57,3.38-1.53.81-3.28,1.22-5.25,1.22h-7.52v-19.01Zm7.41,17.76c1.76,0,3.3-.35,4.64-1.05,1.34-.7,2.37-1.67,3.1-2.92.72-1.25,1.09-2.68,1.09-4.29s-.36-3.04-1.09-4.29c-.72-1.25-1.76-2.22-3.1-2.92-1.34-.7-2.89-1.05-4.64-1.05h-6.03v16.51h6.03Z"/>
    <path class="cls-2" d="m154.79,41.28c-1.08-.62-1.92-1.47-2.54-2.57-.62-1.1-.92-2.33-.92-3.71s.31-2.61.92-3.71c.62-1.1,1.46-1.95,2.54-2.57,1.08-.62,2.29-.92,3.63-.92s2.55.31,3.63.92c1.08.62,1.92,1.47,2.54,2.57.62,1.1.92,2.33.92,3.71s-.31,2.61-.92,3.71c-.62,1.1-1.46,1.95-2.54,2.57-1.08.62-2.29.92-3.63.92s-2.55-.31-3.63-.92Zm6.54-1.06c.86-.51,1.54-1.21,2.04-2.12.5-.91.75-1.94.75-3.1s-.25-2.19-.75-3.1c-.5-.91-1.18-1.61-2.04-2.12-.86-.51-1.83-.76-2.92-.76s-2.06.25-2.92.76c-.86.51-1.54,1.21-2.04,2.12-.5.91-.75,1.94-.75,3.1s.25,2.19.75,3.1c.5.91,1.18,1.61,2.04,2.12.86.51,1.83.76,2.92.76s2.06-.25,2.92-.76Z"/>
    <path class="cls-2" d="m189.57,27.92l-5.38,14.18h-1.28l-4.78-12.3-4.81,12.3h-1.25l-5.38-14.18h1.3l4.73,12.65,4.83-12.65h1.17l4.81,12.63,4.78-12.63h1.25Z"/>
    <path class="cls-2" d="m203.85,29.36c1.03,1.03,1.55,2.52,1.55,4.45v8.28h-1.36v-8.17c0-1.59-.4-2.81-1.21-3.64-.81-.83-1.93-1.25-3.38-1.25-1.67,0-2.98.5-3.94,1.49-.96,1-1.44,2.34-1.44,4.02v7.55h-1.36v-14.18h1.3v3.07c.49-1,1.22-1.77,2.19-2.34.97-.56,2.11-.84,3.44-.84,1.77,0,3.18.52,4.21,1.55Z"/>
    <path class="cls-2" d="m210.99,21.95h1.36v20.15h-1.36v-20.15Z"/>
    <path class="cls-2" d="m219.99,41.28c-1.08-.62-1.92-1.47-2.54-2.57-.62-1.1-.92-2.33-.92-3.71s.31-2.61.92-3.71c.62-1.1,1.46-1.95,2.54-2.57,1.08-.62,2.29-.92,3.63-.92s2.55.31,3.63.92c1.08.62,1.92,1.47,2.54,2.57.62,1.1.92,2.33.92,3.71s-.31,2.61-.92,3.71c-.62,1.1-1.46,1.95-2.54,2.57-1.08.62-2.29.92-3.63.92s-2.55-.31-3.63-.92Zm6.54-1.06c.86-.51,1.54-1.21,2.04-2.12.5-.91.75-1.94.75-3.1s-.25-2.19-.75-3.1c-.5-.91-1.18-1.61-2.04-2.12-.86-.51-1.83-.76-2.92-.76s-2.06.25-2.92.76c-.86.51-1.54,1.21-2.04,2.12-.5.91-.75,1.94-.75,3.1s.25,2.19.75,3.1c.5.91,1.18,1.61,2.04,2.12.86.51,1.83.76,2.92.76s2.06-.25,2.92-.76Z"/>
    <path class="cls-2" d="m243.69,29.16c.94.9,1.41,2.21,1.41,3.95v8.99h-1.3v-2.53c-.45.83-1.11,1.48-1.98,1.94-.87.46-1.91.69-3.12.69-1.58,0-2.82-.37-3.73-1.11-.91-.74-1.37-1.72-1.37-2.93s.42-2.13,1.26-2.86c.84-.73,2.19-1.1,4.03-1.1h4.86v-1.14c0-1.32-.36-2.33-1.07-3.01-.72-.69-1.76-1.03-3.14-1.03-.94,0-1.84.16-2.7.49-.86.33-1.59.76-2.19,1.3l-.68-.98c.71-.63,1.56-1.13,2.55-1.48,1-.35,2.04-.53,3.12-.53,1.76,0,3.1.45,4.05,1.34Zm-1.81,11.12c.82-.54,1.44-1.33,1.86-2.36v-2.66h-4.83c-1.39,0-2.4.25-3.03.76-.62.51-.94,1.2-.94,2.09s.34,1.65,1.03,2.19c.69.53,1.66.8,2.91.8,1.18,0,2.18-.27,3-.81Z"/>
    <path class="cls-2" d="m263.32,21.95v20.15h-1.33v-3.34c-.56,1.1-1.35,1.96-2.36,2.55-1.01.6-2.16.9-3.45.9s-2.52-.31-3.58-.92c-1.07-.62-1.91-1.47-2.51-2.55-.61-1.09-.91-2.33-.91-3.72s.3-2.64.91-3.73c.61-1.1,1.44-1.95,2.51-2.55,1.07-.61,2.26-.91,3.58-.91s2.4.3,3.41.9c1,.6,1.8,1.43,2.38,2.5v-9.26h1.36Zm-4.14,18.28c.86-.51,1.54-1.21,2.04-2.12.5-.91.75-1.94.75-3.1s-.25-2.19-.75-3.1c-.5-.91-1.18-1.61-2.04-2.12-.86-.51-1.83-.76-2.92-.76s-2.06.25-2.92.76c-.86.51-1.54,1.21-2.04,2.12-.5.91-.75,1.94-.75,3.1s.25,2.19.75,3.1c.5.91,1.18,1.61,2.04,2.12.86.51,1.83.76,2.92.76s2.06-.25,2.92-.76Z"/>
    <path class="cls-2" d="m277.94,41.28c-1.08-.62-1.92-1.47-2.54-2.57-.62-1.1-.92-2.33-.92-3.71s.31-2.61.92-3.71c.62-1.1,1.46-1.95,2.54-2.57,1.08-.62,2.29-.92,3.63-.92s2.55.31,3.63.92c1.08.62,1.92,1.47,2.54,2.57.62,1.1.92,2.33.92,3.71s-.31,2.61-.92,3.71c-.62,1.1-1.46,1.95-2.54,2.57-1.08.62-2.29.92-3.63.92s-2.55-.31-3.63-.92Zm6.54-1.06c.86-.51,1.54-1.21,2.04-2.12.5-.91.75-1.94.75-3.1s-.25-2.19-.75-3.1c-.5-.91-1.18-1.61-2.04-2.12-.86-.51-1.83-.76-2.92-.76s-2.06.25-2.92.76c-.86.51-1.54,1.21-2.04,2.12-.5.91-.75,1.94-.75,3.1s.25,2.19.75,3.1c.5.91,1.18,1.61,2.04,2.12.86.51,1.83.76,2.92.76s2.06-.25,2.92-.76Z"/>
    <path class="cls-2" d="m304,29.36c1.03,1.03,1.55,2.52,1.55,4.45v8.28h-1.36v-8.17c0-1.59-.4-2.81-1.21-3.64-.81-.83-1.93-1.25-3.38-1.25-1.67,0-2.98.5-3.94,1.49-.96,1-1.44,2.34-1.44,4.02v7.55h-1.36v-14.18h1.3v3.07c.49-1,1.22-1.77,2.19-2.34.97-.56,2.11-.84,3.44-.84,1.77,0,3.18.52,4.21,1.55Z"/>
    <path class="cls-2" d="m325.15,41.2c-.34.33-.77.57-1.29.75-.52.17-1.05.26-1.62.26-1.23,0-2.18-.34-2.85-1.02-.67-.68-1-1.62-1-2.84v-9.26h-2.61v-1.17h2.61v-3.1h1.36v3.1h4.51v1.17h-4.51v9.12c0,.92.22,1.63.67,2.1.44.48,1.1.72,1.97.72s1.62-.26,2.2-.79l.57.95Z"/>
    <path class="cls-2" d="m340.06,29.36c1.03,1.03,1.55,2.52,1.55,4.45v8.28h-1.36v-8.17c0-1.59-.4-2.81-1.21-3.64-.81-.83-1.93-1.25-3.38-1.25-1.67,0-2.98.5-3.94,1.49-.96,1-1.44,2.34-1.44,4.02v7.55h-1.36v-20.15h1.36v8.93c.49-.98,1.21-1.73,2.17-2.27.96-.53,2.09-.8,3.39-.8,1.77,0,3.18.52,4.21,1.55Z"/>
    <path class="cls-2" d="m359.21,35.33h-12.19c.04,1.1.32,2.09.84,2.95.52.86,1.24,1.53,2.13,2,.9.47,1.91.71,3.03.71.92,0,1.78-.17,2.57-.5.79-.33,1.44-.83,1.97-1.48l.79.9c-.62.74-1.39,1.31-2.32,1.71-.93.4-1.94.6-3.03.6-1.41,0-2.67-.31-3.77-.92-1.1-.62-1.97-1.47-2.59-2.55-.62-1.09-.94-2.33-.94-3.72s.29-2.61.88-3.71c.59-1.1,1.4-1.95,2.43-2.57,1.03-.62,2.19-.92,3.48-.92s2.44.3,3.46.91c1.02.61,1.83,1.45,2.42,2.54.59,1.09.88,2.32.88,3.69l-.03.38Zm-9.42-5.66c-.8.44-1.44,1.07-1.91,1.87-.48.81-.76,1.72-.83,2.73h10.86c-.05-1.01-.33-1.92-.81-2.72-.49-.8-1.13-1.42-1.93-1.87-.8-.45-1.69-.68-2.69-.68s-1.89.22-2.69.67Z"/>
  </g>
  <g>
    <path class="cls-2" d="m150.99,84.12h-16.24l-3.2,7.52h-6.22l14.62-32.48h5.94l14.66,32.48h-6.31l-3.25-7.52Zm-2-4.73l-6.13-14.2-6.08,14.2h12.21Z"/>
    <path class="cls-2" d="m184.33,68.16c1.9,1.05,3.39,2.54,4.48,4.46,1.08,1.92,1.62,4.13,1.62,6.64s-.54,4.73-1.62,6.66c-1.08,1.93-2.58,3.43-4.48,4.48-1.9,1.05-4.06,1.58-6.47,1.58-3.34,0-5.99-1.11-7.94-3.34v12.02h-5.8v-33.78h5.52v3.25c.96-1.18,2.14-2.06,3.55-2.65,1.41-.59,2.96-.88,4.66-.88,2.41,0,4.57.53,6.47,1.58Zm-1.86,16.71c1.38-1.42,2.07-3.29,2.07-5.62s-.69-4.19-2.07-5.62c-1.38-1.42-3.13-2.13-5.27-2.13-1.39,0-2.65.32-3.76.95-1.11.63-2,1.54-2.65,2.71-.65,1.18-.97,2.54-.97,4.08s.32,2.91.97,4.08c.65,1.18,1.53,2.08,2.65,2.71,1.11.63,2.37.95,3.76.95,2.13,0,3.89-.71,5.27-2.13Z"/>
    <path class="cls-2" d="m216.17,68.16c1.9,1.05,3.39,2.54,4.48,4.46,1.08,1.92,1.62,4.13,1.62,6.64s-.54,4.73-1.62,6.66c-1.08,1.93-2.58,3.43-4.48,4.48-1.9,1.05-4.06,1.58-6.47,1.58-3.34,0-5.99-1.11-7.94-3.34v12.02h-5.8v-33.78h5.52v3.25c.96-1.18,2.14-2.06,3.55-2.65,1.41-.59,2.96-.88,4.66-.88,2.41,0,4.57.53,6.47,1.58Zm-1.86,16.71c1.38-1.42,2.07-3.29,2.07-5.62s-.69-4.19-2.07-5.62c-1.38-1.42-3.13-2.13-5.27-2.13-1.39,0-2.65.32-3.76.95-1.11.63-2,1.54-2.65,2.71-.65,1.18-.97,2.54-.97,4.08s.32,2.91.97,4.08c.65,1.18,1.53,2.08,2.65,2.71,1.11.63,2.37.95,3.76.95,2.13,0,3.89-.71,5.27-2.13Z"/>
    <path class="cls-2" d="m243.96,91.03c-2.34-.71-4.18-1.65-5.55-2.83l2.09-4.69c1.33,1.05,2.96,1.91,4.9,2.58,1.93.67,3.87,1,5.82,1,2.41,0,4.21-.39,5.41-1.16,1.19-.77,1.79-1.79,1.79-3.06,0-.93-.33-1.69-1-2.3-.67-.6-1.51-1.07-2.53-1.42-1.02-.34-2.41-.73-4.18-1.16-2.48-.59-4.48-1.18-6.01-1.76-1.53-.59-2.85-1.51-3.94-2.76-1.1-1.25-1.65-2.95-1.65-5.08,0-1.79.49-3.43,1.46-4.9.97-1.47,2.44-2.64,4.41-3.5,1.96-.87,4.37-1.3,7.22-1.3,1.98,0,3.93.25,5.85.74,1.92.5,3.57,1.21,4.97,2.13l-1.9,4.69c-1.42-.84-2.91-1.47-4.46-1.9-1.55-.43-3.05-.65-4.5-.65-2.38,0-4.15.4-5.31,1.21-1.16.8-1.74,1.87-1.74,3.2,0,.93.33,1.69,1,2.27.66.59,1.51,1.05,2.53,1.39,1.02.34,2.41.73,4.18,1.16,2.41.56,4.39,1.14,5.94,1.74,1.55.6,2.87,1.52,3.97,2.76,1.1,1.24,1.65,2.91,1.65,5.01,0,1.79-.49,3.42-1.46,4.87-.97,1.45-2.45,2.61-4.43,3.48-1.98.87-4.39,1.3-7.24,1.3-2.51,0-4.93-.36-7.26-1.07Z"/>
    <path class="cls-2" d="m284.68,90.29c-.68.56-1.51.97-2.48,1.25-.97.28-2,.42-3.09.42-2.72,0-4.83-.71-6.31-2.13-1.49-1.42-2.23-3.5-2.23-6.22v-11.93h-4.08v-4.64h4.08v-5.66h5.8v5.66h6.64v4.64h-6.64v11.79c0,1.21.29,2.13.88,2.76.59.63,1.44.95,2.55.95,1.3,0,2.38-.34,3.25-1.02l1.62,4.13Z"/>
    <path class="cls-2" d="m292.99,90.34c-2.01-1.08-3.58-2.59-4.71-4.52-1.13-1.93-1.69-4.12-1.69-6.57s.56-4.62,1.69-6.54c1.13-1.92,2.7-3.42,4.71-4.5,2.01-1.08,4.27-1.62,6.78-1.62s4.81.54,6.82,1.62c2.01,1.08,3.58,2.58,4.71,4.5,1.13,1.92,1.69,4.1,1.69,6.54s-.56,4.63-1.69,6.57c-1.13,1.93-2.7,3.44-4.71,4.52-2.01,1.08-4.29,1.62-6.82,1.62s-4.76-.54-6.78-1.62Zm12.07-5.48c1.39-1.42,2.09-3.29,2.09-5.62s-.7-4.19-2.09-5.62c-1.39-1.42-3.16-2.13-5.29-2.13s-3.89.71-5.27,2.13c-1.38,1.42-2.07,3.29-2.07,5.62s.69,4.19,2.07,5.62c1.38,1.42,3.13,2.13,5.27,2.13s3.9-.71,5.29-2.13Z"/>
    <path class="cls-2" d="m332.9,66.58v5.52c-.5-.09-.94-.14-1.35-.14-2.26,0-4.02.66-5.29,1.97-1.27,1.32-1.9,3.21-1.9,5.68v12.02h-5.8v-24.78h5.52v3.62c1.67-2.6,4.61-3.9,8.82-3.9Z"/>
    <path class="cls-2" d="m360.79,81.1h-19.44c.34,1.83,1.23,3.27,2.67,4.34,1.44,1.07,3.23,1.6,5.36,1.6,2.72,0,4.97-.9,6.73-2.69l3.11,3.57c-1.11,1.33-2.52,2.34-4.22,3.02-1.7.68-3.62,1.02-5.75,1.02-2.72,0-5.12-.54-7.19-1.62-2.07-1.08-3.67-2.59-4.8-4.52-1.13-1.93-1.69-4.12-1.69-6.57s.55-4.59,1.65-6.52c1.1-1.93,2.62-3.44,4.57-4.52,1.95-1.08,4.15-1.62,6.59-1.62s4.57.53,6.47,1.6c1.9,1.07,3.39,2.57,4.46,4.5,1.07,1.93,1.6,4.17,1.6,6.71,0,.4-.03.97-.09,1.72Zm-17.15-8.24c-1.28,1.1-2.06,2.56-2.34,4.39h14.06c-.25-1.79-1.01-3.25-2.27-4.36-1.27-1.11-2.85-1.67-4.73-1.67s-3.43.55-4.71,1.65Z"/>
  </g>
</svg>