<?xml version="1.0" encoding="UTF-8"?>
<svg id="Layer_1" data-name="Layer 1" xmlns="http://www.w3.org/2000/svg" viewBox="0 0 24 24">
  <defs>
    <style>
      .cls-1 {
        fill: #9c2a32;
      }
    </style>
  </defs>
  <g>
    <path class="cls-1" d="m17.59,3.07c-1.54-1.52-3.51-2.35-5.64-2.32-4.34.05-7.87,3.6-7.87,7.94,0,7.08,7.3,14.17,7.61,14.45.09.07.19.12.31.12s.21-.05.31-.12c.31-.31,7.61-7.37,7.61-14.45.05-2.11-.81-4.12-2.32-5.62h0Zm-5.57,19.1c-1.4-1.42-7.04-7.58-7.04-13.51,0-3.84,3.13-6.99,6.97-7.04h.07c1.85,0,3.6.73,4.93,2.06,1.35,1.35,2.11,3.1,2.11,4.98,0,5.92-5.64,12.08-7.04,13.51h0Z"/>
    <path class="cls-1" d="m12,23.5c-.21,0-.36-.1-.46-.17-.1-.09-7.7-7.31-7.7-14.65C3.84,4.22,7.48.55,11.95.5c.03,0,.06,0,.09,0,2.15,0,4.13.83,5.72,2.39h0c1.59,1.57,2.44,3.63,2.4,5.8,0,6.69-6.37,13.33-7.65,14.59l-.05.05c-.1.07-.25.17-.46.17Zm.04-22.51s-.06,0-.09,0c-4.2.04-7.62,3.5-7.62,7.69,0,7.13,7.45,14.2,7.53,14.27.11.08.15.1.3-.02,1.26-1.25,7.51-7.76,7.51-14.26.04-2.04-.75-3.97-2.25-5.44h0c-1.5-1.47-3.35-2.25-5.38-2.25Zm-.02,21.53l-.17-.18c-1.19-1.21-7.11-7.54-7.11-13.68,0-3.97,3.23-7.23,7.21-7.28h.07c1.91,0,3.73.76,5.1,2.13,1.41,1.41,2.18,3.23,2.18,5.15,0,6.13-5.92,12.47-7.11,13.68l-.17.18Zm-.07-20.65c-3.7.05-6.72,3.09-6.72,6.79,0,5.69,5.32,11.62,6.79,13.16,1.48-1.54,6.79-7.47,6.79-13.16,0-1.78-.72-3.49-2.04-4.8-1.28-1.28-2.97-1.99-4.76-1.99h-.07Z"/>
  </g>
  <g>
    <path class="cls-1" d="m12.02,4.73c-2.18,0-3.93,1.78-3.93,3.93s1.75,3.96,3.93,3.96,3.93-1.78,3.93-3.93-1.75-3.96-3.93-3.96h0Zm0,6.99c-1.68,0-3.06-1.37-3.06-3.06s1.37-3.06,3.06-3.06c1.68,0,3.06,1.4,3.06,3.08s-1.37,3.03-3.06,3.03h0Z"/>
    <path class="cls-1" d="m12.02,12.86c-2.3,0-4.18-1.88-4.18-4.2s1.87-4.18,4.18-4.18,4.18,1.88,4.18,4.2-1.87,4.18-4.18,4.18Zm0-7.89c-2.03,0-3.69,1.65-3.69,3.69s1.66,3.71,3.69,3.71,3.69-1.65,3.69-3.69-1.65-3.71-3.69-3.71Zm0,6.99c-1.82,0-3.3-1.48-3.3-3.3s1.48-3.3,3.3-3.3,3.3,1.49,3.3,3.33-1.48,3.28-3.3,3.28Zm0-6.11c-1.55,0-2.81,1.26-2.81,2.81s1.26,2.81,2.81,2.81,2.81-1.25,2.81-2.79-1.26-2.84-2.81-2.84Z"/>
  </g>
</svg>